<svg width="165" height="165" viewBox="0 0 165 165" fill="none" xmlns="http://www.w3.org/2000/svg">
<g clip-path="url(#clip0_878_101608)">
<path fill-rule="evenodd" clip-rule="evenodd" d="M82.5 165C128.063 165 165 128.063 165 82.5C165 36.9365 128.063 0 82.5 0C36.9365 0 0 36.9365 0 82.5C0 128.063 36.9365 165 82.5 165Z" fill="white"/>
<path d="M52.7656 111L48.8906 100.875H48.8281C48.901 101.677 48.9375 102.63 48.9375 103.734V111H47.7109V99.5781H49.7109L53.3281 109H53.3906L57.0391 99.5781H59.0234V111H57.6953V103.641C57.6953 102.797 57.7318 101.88 57.8047 100.891H57.7422L53.8359 111H52.7656ZM67.2344 111L66.9766 109.781H66.9141C66.487 110.318 66.0599 110.682 65.6328 110.875C65.2109 111.062 64.6823 111.156 64.0469 111.156C63.1979 111.156 62.5312 110.938 62.0469 110.5C61.5677 110.062 61.3281 109.44 61.3281 108.633C61.3281 106.904 62.7109 105.997 65.4766 105.914L66.9297 105.867V105.336C66.9297 104.664 66.7839 104.169 66.4922 103.852C66.2057 103.529 65.7448 103.367 65.1094 103.367C64.3958 103.367 63.5885 103.586 62.6875 104.023L62.2891 103.031C62.7109 102.802 63.1719 102.622 63.6719 102.492C64.1771 102.362 64.6823 102.297 65.1875 102.297C66.2083 102.297 66.9635 102.523 67.4531 102.977C67.9479 103.43 68.1953 104.156 68.1953 105.156V111H67.2344ZM64.3047 110.086C65.112 110.086 65.7448 109.865 66.2031 109.422C66.6667 108.979 66.8984 108.359 66.8984 107.562V106.789L65.6016 106.844C64.5703 106.88 63.8255 107.042 63.3672 107.328C62.9141 107.609 62.6875 108.049 62.6875 108.648C62.6875 109.117 62.8281 109.474 63.1094 109.719C63.3958 109.964 63.7943 110.086 64.3047 110.086ZM72.1719 111H70.875V102.438H72.1719V111ZM70.7656 100.117C70.7656 99.8203 70.8385 99.6042 70.9844 99.4688C71.1302 99.3281 71.3125 99.2578 71.5312 99.2578C71.7396 99.2578 71.9193 99.3281 72.0703 99.4688C72.2214 99.6094 72.2969 99.8255 72.2969 100.117C72.2969 100.409 72.2214 100.628 72.0703 100.773C71.9193 100.914 71.7396 100.984 71.5312 100.984C71.3125 100.984 71.1302 100.914 70.9844 100.773C70.8385 100.628 70.7656 100.409 70.7656 100.117ZM80.7812 111V105.461C80.7812 104.763 80.6224 104.242 80.3047 103.898C79.987 103.555 79.4896 103.383 78.8125 103.383C77.9167 103.383 77.2604 103.625 76.8438 104.109C76.4271 104.594 76.2188 105.393 76.2188 106.508V111H74.9219V102.438H75.9766L76.1875 103.609H76.25C76.5156 103.188 76.888 102.862 77.3672 102.633C77.8464 102.398 78.3802 102.281 78.9688 102.281C80 102.281 80.776 102.531 81.2969 103.031C81.8177 103.526 82.0781 104.32 82.0781 105.414V111H80.7812ZM94.7344 109.852H94.6641C94.0651 110.721 93.1693 111.156 91.9766 111.156C90.8568 111.156 89.9844 110.773 89.3594 110.008C88.7396 109.242 88.4297 108.154 88.4297 106.742C88.4297 105.331 88.7422 104.234 89.3672 103.453C89.9922 102.672 90.862 102.281 91.9766 102.281C93.138 102.281 94.0286 102.703 94.6484 103.547H94.75L94.6953 102.93L94.6641 102.328V98.8438H95.9609V111H94.9062L94.7344 109.852ZM92.1406 110.07C93.026 110.07 93.6667 109.831 94.0625 109.352C94.4635 108.867 94.6641 108.089 94.6641 107.016V106.742C94.6641 105.529 94.4609 104.664 94.0547 104.148C93.6536 103.628 93.0104 103.367 92.125 103.367C91.3646 103.367 90.7812 103.664 90.375 104.258C89.974 104.846 89.7734 105.68 89.7734 106.758C89.7734 107.852 89.974 108.677 90.375 109.234C90.776 109.792 91.3646 110.07 92.1406 110.07ZM100.016 111H98.7188V102.438H100.016V111ZM98.6094 100.117C98.6094 99.8203 98.6823 99.6042 98.8281 99.4688C98.974 99.3281 99.1562 99.2578 99.375 99.2578C99.5833 99.2578 99.763 99.3281 99.9141 99.4688C100.065 99.6094 100.141 99.8255 100.141 100.117C100.141 100.409 100.065 100.628 99.9141 100.773C99.763 100.914 99.5833 100.984 99.375 100.984C99.1562 100.984 98.974 100.914 98.8281 100.773C98.6823 100.628 98.6094 100.409 98.6094 100.117ZM108.289 108.664C108.289 109.461 107.992 110.076 107.398 110.508C106.805 110.94 105.971 111.156 104.898 111.156C103.763 111.156 102.878 110.977 102.242 110.617V109.414C102.654 109.622 103.094 109.786 103.562 109.906C104.036 110.026 104.492 110.086 104.93 110.086C105.607 110.086 106.128 109.979 106.492 109.766C106.857 109.547 107.039 109.216 107.039 108.773C107.039 108.44 106.893 108.156 106.602 107.922C106.315 107.682 105.753 107.401 104.914 107.078C104.117 106.781 103.549 106.523 103.211 106.305C102.878 106.081 102.628 105.828 102.461 105.547C102.299 105.266 102.219 104.93 102.219 104.539C102.219 103.841 102.503 103.292 103.07 102.891C103.638 102.484 104.417 102.281 105.406 102.281C106.328 102.281 107.229 102.469 108.109 102.844L107.648 103.898C106.789 103.544 106.01 103.367 105.312 103.367C104.698 103.367 104.234 103.464 103.922 103.656C103.609 103.849 103.453 104.115 103.453 104.453C103.453 104.682 103.51 104.878 103.625 105.039C103.745 105.201 103.935 105.354 104.195 105.5C104.456 105.646 104.956 105.857 105.695 106.133C106.711 106.503 107.396 106.875 107.75 107.25C108.109 107.625 108.289 108.096 108.289 108.664ZM116.266 111V105.461C116.266 104.763 116.107 104.242 115.789 103.898C115.471 103.555 114.974 103.383 114.297 103.383C113.396 103.383 112.737 103.628 112.32 104.117C111.909 104.607 111.703 105.409 111.703 106.523V111H110.406V98.8438H111.703V102.523C111.703 102.966 111.682 103.333 111.641 103.625H111.719C111.974 103.214 112.336 102.891 112.805 102.656C113.279 102.417 113.818 102.297 114.422 102.297C115.469 102.297 116.253 102.547 116.773 103.047C117.299 103.542 117.562 104.331 117.562 105.414V111H116.266Z" fill="#212121"/>
<path fill-rule="evenodd" clip-rule="evenodd" d="M107.955 48C107.955 46.3431 106.53 45 104.773 45C103.015 45 101.591 46.3431 101.591 48C101.591 49.5083 102.771 50.7566 104.309 50.9684L101.14 54.4866C98.4183 53.2923 93.9545 54.3954 90.494 56.7182C87.0994 54.4183 82.4485 53 77.3182 53C74.2614 53 71.3749 53.5035 68.8229 54.397L68.2169 54.6188C62.4228 56.8348 58.5 61.1009 58.5 66C58.5 68.1645 59.2658 70.2055 60.6203 72.0007L52.5 72V80H55.5V82.0019L55.5055 82.151C55.5818 83.1849 56.4452 84 57.5014 84H101.499L101.648 83.9946C102.684 83.9189 103.5 83.0628 103.5 82.0019V80H106.5V72L97.235 72.0004C98.5757 70.4253 99.8201 68.7894 100.548 67.5103C100.581 67.4529 100.614 67.3943 100.647 67.3345L100.851 66.9631L101.06 66.5669L101.273 66.1483L101.487 65.7093L101.7 65.2521C101.736 65.1746 101.771 65.0963 101.806 65.0175L102.015 64.5374C102.05 64.4562 102.084 64.3746 102.118 64.2925L102.317 63.7943C102.35 63.7105 102.382 63.6262 102.414 63.5416L102.6 63.0304L102.774 62.5133C103.166 61.2989 103.445 60.0539 103.493 58.9056C103.498 58.7974 103.5 58.6903 103.5 58.5844C103.503 57.7817 103.383 57.0339 103.099 56.3868L105.468 53.7558C105.993 55.0684 107.315 56 108.864 56C110.872 56 112.5 54.433 112.5 52.5C112.5 50.567 110.872 49 108.864 49C108.454 49 108.061 49.065 107.696 49.1861C107.862 48.8223 107.955 48.4213 107.955 48ZM101.5 78H104.499V73.999L104.448 73.999L93.4108 74.001L93.4112 74.0006L92.9059 74.0007L92.9065 74H82.0429L82.0431 74.0007L64.6341 73.9996L64.6352 74.001L54.5265 73.999L54.5 73.999V78H57.5H101.5ZM95.712 70.7041L93.7577 73H81.7535L81.6732 72.7226L81.6226 72.5313C81.237 70.9231 81.7533 68.9655 83.3344 66.4465C84.4397 64.6857 86.9477 62.4299 89.5662 60.4952C89.742 60.3653 89.9196 60.237 90.0987 60.1106L90.6402 59.7367L91.1889 59.3745C91.2809 59.3152 91.3731 59.2564 91.4655 59.1982L92.022 58.8556C92.115 58.7997 92.2082 58.7443 92.3014 58.6896L92.8615 58.3688L93.422 58.0638C93.6086 57.9649 93.795 57.8689 93.9809 57.7757L94.5366 57.5055C96.2501 56.6976 97.8918 56.1614 99.2271 56.0333C99.9052 56.1107 100.467 56.3088 100.857 56.632C102.277 57.8083 101.237 62.255 98.8097 66.5211C98.2812 67.4499 97.375 68.6972 96.2475 70.065L95.712 70.7041ZM82.4874 65.9149C80.6727 68.806 80.1564 71.0784 80.7124 73H80.6364V73.0006L63.8801 73.0002L62.2168 70.796L62.0109 70.5131C61.0132 69.0911 60.5 67.5633 60.5 66C60.5 60.1162 67.9059 55 77.3182 55C81.9242 55 86.2187 56.2374 89.3722 58.374L90.1289 58.8867L90.0222 58.9566L89.6407 59.2148L89.1266 59.5777L88.7829 59.8315L88.1151 60.341L87.6018 60.7457C87.5126 60.817 87.4217 60.8902 87.3293 60.9652L86.7607 61.4344C85.2102 62.7353 83.4319 64.4102 82.4874 65.9149ZM57.4997 79H101.5V81.999L101.426 82.0013L57.5014 82L57.4986 81.9284L57.4997 79Z" fill="#212121"/>
</g>
<defs>
<clipPath id="clip0_878_101608">
<rect width="165" height="165" fill="white"/>
</clipPath>
</defs>
</svg>
