<svg width="165" height="165" viewBox="0 0 165 165" fill="none" xmlns="http://www.w3.org/2000/svg">
<g clip-path="url(#clip0_878_101620)">
<path fill-rule="evenodd" clip-rule="evenodd" d="M82.5 165C128.063 165 165 128.063 165 82.5C165 36.9365 128.063 0 82.5 0C36.9365 0 0 36.9365 0 82.5C0 128.063 36.9365 165 82.5 165Z" fill="white"/>
<path d="M68.1484 109.961C68.1484 110.966 67.7839 111.75 67.0547 112.312C66.3255 112.875 65.3359 113.156 64.0859 113.156C62.7318 113.156 61.6901 112.982 60.9609 112.633V111.352C61.4297 111.549 61.9401 111.706 62.4922 111.82C63.0443 111.935 63.5911 111.992 64.1328 111.992C65.0182 111.992 65.6849 111.826 66.1328 111.492C66.5807 111.154 66.8047 110.685 66.8047 110.086C66.8047 109.69 66.724 109.367 66.5625 109.117C66.4062 108.862 66.1406 108.628 65.7656 108.414C65.3958 108.201 64.8307 107.958 64.0703 107.688C63.0078 107.307 62.2474 106.857 61.7891 106.336C61.3359 105.815 61.1094 105.135 61.1094 104.297C61.1094 103.417 61.4401 102.716 62.1016 102.195C62.763 101.674 63.638 101.414 64.7266 101.414C65.862 101.414 66.9062 101.622 67.8594 102.039L67.4453 103.195C66.5026 102.799 65.5859 102.602 64.6953 102.602C63.9922 102.602 63.4427 102.753 63.0469 103.055C62.651 103.357 62.4531 103.776 62.4531 104.312C62.4531 104.708 62.526 105.034 62.6719 105.289C62.8177 105.539 63.0625 105.771 63.4062 105.984C63.7552 106.193 64.2865 106.424 65 106.68C66.1979 107.107 67.0208 107.565 67.4688 108.055C67.9219 108.544 68.1484 109.18 68.1484 109.961ZM77.6797 108.711C77.6797 110.107 77.3281 111.198 76.625 111.984C75.9219 112.766 74.9505 113.156 73.7109 113.156C72.9453 113.156 72.2656 112.977 71.6719 112.617C71.0781 112.258 70.6198 111.742 70.2969 111.07C69.974 110.398 69.8125 109.612 69.8125 108.711C69.8125 107.315 70.1615 106.229 70.8594 105.453C71.5573 104.672 72.526 104.281 73.7656 104.281C74.9635 104.281 75.9141 104.68 76.6172 105.477C77.3255 106.273 77.6797 107.352 77.6797 108.711ZM71.1562 108.711C71.1562 109.805 71.375 110.638 71.8125 111.211C72.25 111.784 72.8932 112.07 73.7422 112.07C74.5911 112.07 75.2344 111.786 75.6719 111.219C76.1146 110.646 76.3359 109.81 76.3359 108.711C76.3359 107.622 76.1146 106.797 75.6719 106.234C75.2344 105.667 74.5859 105.383 73.7266 105.383C72.8776 105.383 72.237 105.661 71.8047 106.219C71.3724 106.776 71.1562 107.607 71.1562 108.711ZM81.1797 104.438V109.992C81.1797 110.69 81.3385 111.211 81.6562 111.555C81.974 111.898 82.4714 112.07 83.1484 112.07C84.0443 112.07 84.6979 111.826 85.1094 111.336C85.526 110.846 85.7344 110.047 85.7344 108.938V104.438H87.0312V113H85.9609L85.7734 111.852H85.7031C85.4375 112.273 85.0677 112.596 84.5938 112.82C84.125 113.044 83.5885 113.156 82.9844 113.156C81.9427 113.156 81.1615 112.909 80.6406 112.414C80.125 111.919 79.8672 111.128 79.8672 110.039V104.438H81.1797ZM93.7734 113.156C93.2161 113.156 92.7057 113.055 92.2422 112.852C91.7839 112.643 91.3984 112.326 91.0859 111.898H90.9922C91.0547 112.398 91.0859 112.872 91.0859 113.32V116.844H89.7891V104.438H90.8438L91.0234 105.609H91.0859C91.4193 105.141 91.8073 104.802 92.25 104.594C92.6927 104.385 93.2005 104.281 93.7734 104.281C94.9089 104.281 95.7839 104.669 96.3984 105.445C97.0182 106.221 97.3281 107.31 97.3281 108.711C97.3281 110.117 97.013 111.211 96.3828 111.992C95.7578 112.768 94.888 113.156 93.7734 113.156ZM93.5859 105.383C92.7109 105.383 92.0781 105.625 91.6875 106.109C91.2969 106.594 91.0964 107.365 91.0859 108.422V108.711C91.0859 109.914 91.2865 110.776 91.6875 111.297C92.0885 111.812 92.7318 112.07 93.6172 112.07C94.3568 112.07 94.9349 111.771 95.3516 111.172C95.7734 110.573 95.9844 109.747 95.9844 108.695C95.9844 107.628 95.7734 106.81 95.3516 106.242C94.9349 105.669 94.3464 105.383 93.5859 105.383ZM105.125 110.664C105.125 111.461 104.828 112.076 104.234 112.508C103.641 112.94 102.807 113.156 101.734 113.156C100.599 113.156 99.7135 112.977 99.0781 112.617V111.414C99.4896 111.622 99.9297 111.786 100.398 111.906C100.872 112.026 101.328 112.086 101.766 112.086C102.443 112.086 102.964 111.979 103.328 111.766C103.693 111.547 103.875 111.216 103.875 110.773C103.875 110.44 103.729 110.156 103.438 109.922C103.151 109.682 102.589 109.401 101.75 109.078C100.953 108.781 100.385 108.523 100.047 108.305C99.7135 108.081 99.4635 107.828 99.2969 107.547C99.1354 107.266 99.0547 106.93 99.0547 106.539C99.0547 105.841 99.3385 105.292 99.9062 104.891C100.474 104.484 101.253 104.281 102.242 104.281C103.164 104.281 104.065 104.469 104.945 104.844L104.484 105.898C103.625 105.544 102.846 105.367 102.148 105.367C101.534 105.367 101.07 105.464 100.758 105.656C100.445 105.849 100.289 106.115 100.289 106.453C100.289 106.682 100.346 106.878 100.461 107.039C100.581 107.201 100.771 107.354 101.031 107.5C101.292 107.646 101.792 107.857 102.531 108.133C103.547 108.503 104.232 108.875 104.586 109.25C104.945 109.625 105.125 110.096 105.125 110.664Z" fill="#212121"/>
<path fill-rule="evenodd" clip-rule="evenodd" d="M87 48C87 45.2386 84.7614 43 82 43C79.2386 43 77 45.2386 77 48L77.0035 48.1598L76.1079 48.2235C75.9597 48.2349 75.8119 48.2468 75.6647 48.2591L74.7879 48.3379L73.9244 48.4266L73.0749 48.5249C72.9345 48.542 72.7947 48.5596 72.6556 48.5776L71.8281 48.6899L71.0162 48.8115L70.2205 48.9419C70.0893 48.9644 69.9588 48.9872 69.8289 49.0104L69.0586 49.1539C68.9317 49.1785 68.8055 49.2035 68.6801 49.2288L67.9367 49.3849C67.8143 49.4115 67.6927 49.4386 67.5719 49.4659L66.8568 49.6341C66.7392 49.6628 66.6224 49.6918 66.5065 49.7211L65.8211 49.9009C65.7085 49.9315 65.5968 49.9625 65.486 49.9937L64.8317 50.1847C64.5098 50.282 64.1961 50.3821 63.8907 50.4847L63.2914 50.6934C59.4703 52.0718 57.1142 53.8755 57.004 55.8546L57 56L57.0002 61.0829C54.1624 61.5589 52 64.0269 52 67C52 69.9731 54.1624 72.4411 57.0002 72.9171L57 80.9981L57.0049 81.1979C57.1091 83.3152 58.8613 85 61.0072 85H102.993L103.193 84.9951C105.313 84.891 107 83.1408 107 80.9981L107.001 72.9169C109.838 72.4405 112 69.9727 112 67C112 64.0273 109.838 61.5595 107.001 61.0831L107 56L106.996 55.8495C106.917 54.4802 105.763 53.195 103.792 52.0767L103.341 51.8309L102.864 51.5909C102.128 51.2352 101.306 50.8995 100.407 50.5867L99.7967 50.3816C99.5895 50.3144 99.3786 50.2484 99.1641 50.1836L98.5099 49.9927L97.8349 49.8093C97.1496 49.6296 96.4339 49.4614 95.6908 49.3055L94.9385 49.1537C94.8117 49.1291 94.6841 49.1049 94.5557 49.081L93.7771 48.942C93.646 48.9195 93.5141 48.8974 93.3815 48.8757L92.578 48.7498L91.7586 48.633L90.9241 48.5254C90.7838 48.5082 90.6428 48.4915 90.5013 48.4751L89.6451 48.3818C89.3575 48.3522 89.0675 48.3243 88.7754 48.2981L87.8926 48.2244L86.9975 48.1609L87 48ZM81.7041 45.0144C81.8014 45.0049 81.9001 45 82 45C83.6569 45 85 46.3431 85 48L84.9942 48.1881C84.8971 49.7573 83.5937 51 82 51C80.3949 51 79.0843 49.7395 79.0039 48.1545L79.0001 47.9807C79.0098 46.4324 80.1924 45.1624 81.7041 45.0144ZM85.4275 50.0633C84.7273 51.2239 83.4543 52 82 52C80.5453 52 79.2719 51.2234 78.5719 50.0622L77.1331 50.1556C71.7714 50.5036 66.9879 51.4223 63.5684 52.7235C60.6765 53.824 59.1537 55.0558 59.0131 55.8292L59.0033 55.9103L59 55.9999L59.0001 59H105V61H59.0002L59.0003 62.7754L57.331 63.0554C55.4212 63.3757 54 65.0395 54 67C54 68.8929 55.3249 70.5092 57.1353 70.9067L57.331 70.9446L59.0002 71.2246L58.9994 80.949L59.0025 81.0995C59.0522 82.1094 59.8537 82.9195 60.8555 82.9944L61.0072 83L102.944 83.0006L103.095 82.9975C104.108 82.9478 104.919 82.1473 104.994 81.1491L105 80.9979L105.001 71.2247L106.67 70.9445C108.579 70.6239 110 68.9603 110 67C110 65.1073 108.675 63.4912 106.865 63.0934L106.67 63.0555L105.001 62.7753L105.001 56.0576L104.999 55.9646C104.952 55.1419 103.423 53.8612 100.427 52.722C97.1397 51.4717 92.5925 50.5752 87.4838 50.1993L86.8681 50.1567L85.4275 50.0633Z" fill="#212121"/>
</g>
<defs>
<clipPath id="clip0_878_101620">
<rect width="165" height="165" fill="white"/>
</clipPath>
</defs>
</svg>
