<svg width="165" height="165" viewBox="0 0 165 165" fill="none" xmlns="http://www.w3.org/2000/svg">
<g clip-path="url(#clip0_878_101544)">
<path fill-rule="evenodd" clip-rule="evenodd" d="M82.5 165C128.063 165 165 128.063 165 82.5C165 36.9365 128.063 0 82.5 0C36.9365 0 0 36.9365 0 82.5C0 128.063 36.9365 165 82.5 165Z" fill="white"/>
<path d="M67.0859 101.578H68.5156L64.3984 113H63.0859L58.9922 101.578H60.3984L63.0234 108.969C63.3255 109.818 63.5651 110.643 63.7422 111.445C63.9297 110.602 64.1745 109.76 64.4766 108.922L67.0859 101.578ZM73.5156 113.156C72.25 113.156 71.25 112.771 70.5156 112C69.7865 111.229 69.4219 110.159 69.4219 108.789C69.4219 107.409 69.7604 106.312 70.4375 105.5C71.1198 104.688 72.0339 104.281 73.1797 104.281C74.2526 104.281 75.1016 104.635 75.7266 105.344C76.3516 106.047 76.6641 106.977 76.6641 108.133V108.953H70.7656C70.7917 109.958 71.0443 110.721 71.5234 111.242C72.0078 111.763 72.6875 112.023 73.5625 112.023C74.4844 112.023 75.3958 111.831 76.2969 111.445V112.602C75.8385 112.799 75.4036 112.94 74.9922 113.023C74.5859 113.112 74.0938 113.156 73.5156 113.156ZM73.1641 105.367C72.4766 105.367 71.9271 105.591 71.5156 106.039C71.1094 106.487 70.8698 107.107 70.7969 107.898H75.2734C75.2734 107.081 75.0911 106.456 74.7266 106.023C74.362 105.586 73.8411 105.367 73.1641 105.367ZM85.8906 104.438V105.258L84.3047 105.445C84.4505 105.628 84.5807 105.867 84.6953 106.164C84.8099 106.456 84.8672 106.786 84.8672 107.156C84.8672 107.995 84.5807 108.664 84.0078 109.164C83.4349 109.664 82.6484 109.914 81.6484 109.914C81.3932 109.914 81.1536 109.893 80.9297 109.852C80.3776 110.143 80.1016 110.51 80.1016 110.953C80.1016 111.188 80.1979 111.362 80.3906 111.477C80.5833 111.586 80.9141 111.641 81.3828 111.641H82.8984C83.8255 111.641 84.5365 111.836 85.0312 112.227C85.5312 112.617 85.7812 113.185 85.7812 113.93C85.7812 114.878 85.401 115.599 84.6406 116.094C83.8802 116.594 82.7708 116.844 81.3125 116.844C80.1927 116.844 79.3281 116.635 78.7188 116.219C78.1146 115.802 77.8125 115.214 77.8125 114.453C77.8125 113.932 77.9792 113.482 78.3125 113.102C78.6458 112.721 79.1146 112.464 79.7188 112.328C79.5 112.229 79.3151 112.076 79.1641 111.867C79.0182 111.659 78.9453 111.417 78.9453 111.141C78.9453 110.828 79.0286 110.555 79.1953 110.32C79.362 110.086 79.625 109.859 79.9844 109.641C79.5417 109.458 79.1797 109.148 78.8984 108.711C78.6224 108.273 78.4844 107.773 78.4844 107.211C78.4844 106.273 78.7656 105.552 79.3281 105.047C79.8906 104.536 80.6875 104.281 81.7188 104.281C82.1667 104.281 82.5703 104.333 82.9297 104.438H85.8906ZM79.0625 114.438C79.0625 114.901 79.2578 115.253 79.6484 115.492C80.0391 115.732 80.599 115.852 81.3281 115.852C82.4167 115.852 83.2214 115.688 83.7422 115.359C84.2682 115.036 84.5312 114.596 84.5312 114.039C84.5312 113.576 84.388 113.253 84.1016 113.07C83.8151 112.893 83.276 112.805 82.4844 112.805H80.9297C80.3411 112.805 79.8828 112.945 79.5547 113.227C79.2266 113.508 79.0625 113.911 79.0625 114.438ZM79.7656 107.18C79.7656 107.779 79.9349 108.232 80.2734 108.539C80.612 108.846 81.0833 109 81.6875 109C82.9531 109 83.5859 108.385 83.5859 107.156C83.5859 105.87 82.9453 105.227 81.6641 105.227C81.0547 105.227 80.5859 105.391 80.2578 105.719C79.9297 106.047 79.7656 106.534 79.7656 107.18ZM92.9141 113L92.6562 111.781H92.5938C92.1667 112.318 91.7396 112.682 91.3125 112.875C90.8906 113.062 90.362 113.156 89.7266 113.156C88.8776 113.156 88.2109 112.938 87.7266 112.5C87.2474 112.062 87.0078 111.44 87.0078 110.633C87.0078 108.904 88.3906 107.997 91.1562 107.914L92.6094 107.867V107.336C92.6094 106.664 92.4635 106.169 92.1719 105.852C91.8854 105.529 91.4245 105.367 90.7891 105.367C90.0755 105.367 89.2682 105.586 88.3672 106.023L87.9688 105.031C88.3906 104.802 88.8516 104.622 89.3516 104.492C89.8568 104.362 90.362 104.297 90.8672 104.297C91.888 104.297 92.6432 104.523 93.1328 104.977C93.6276 105.43 93.875 106.156 93.875 107.156V113H92.9141ZM89.9844 112.086C90.7917 112.086 91.4245 111.865 91.8828 111.422C92.3464 110.979 92.5781 110.359 92.5781 109.562V108.789L91.2812 108.844C90.25 108.88 89.5052 109.042 89.0469 109.328C88.5938 109.609 88.3672 110.049 88.3672 110.648C88.3672 111.117 88.5078 111.474 88.7891 111.719C89.0755 111.964 89.474 112.086 89.9844 112.086ZM102.414 113V107.461C102.414 106.763 102.255 106.242 101.938 105.898C101.62 105.555 101.122 105.383 100.445 105.383C99.5495 105.383 98.8932 105.625 98.4766 106.109C98.0599 106.594 97.8516 107.393 97.8516 108.508V113H96.5547V104.438H97.6094L97.8203 105.609H97.8828C98.1484 105.188 98.5208 104.862 99 104.633C99.4792 104.398 100.013 104.281 100.602 104.281C101.633 104.281 102.409 104.531 102.93 105.031C103.451 105.526 103.711 106.32 103.711 107.414V113H102.414Z" fill="#212121"/>
<path fill-rule="evenodd" clip-rule="evenodd" d="M58.9619 44L60.3647 44.0003L60.9332 44.0126L61.3621 44.0326L61.6815 44.053L62.0261 44.0799L62.5868 44.1345L62.9878 44.1815L63.4088 44.2381L63.8483 44.305L64.3049 44.3831C64.3823 44.3971 64.4604 44.4116 64.5392 44.4266L65.0187 44.523L65.5116 44.6327C65.678 44.6716 65.8464 44.7129 66.0166 44.7566L66.5321 44.8954C67.0523 45.0419 67.5862 45.2122 68.127 45.4099L68.67 45.6169C72.1206 46.9877 75.7653 49.5104 77.9357 54.1428C79.0243 56.4647 79.9829 61.9739 80 66C80 60.3401 83.5237 54 90.5 54C97.3638 54 100.919 59.1692 101.031 64.7264L101.034 65H107V75H104.095L103.959 75.294L103.781 75.6433L103.594 75.9854L103.362 76.3851L103.182 76.6799L102.981 76.9948C102.945 77.0488 102.909 77.1035 102.872 77.159L102.639 77.4998L102.384 77.8552L102.106 78.2229C102.058 78.2851 102.009 78.3477 101.959 78.4107L101.648 78.7928C101.541 78.9214 101.43 79.0511 101.315 79.1816L100.957 79.575C98.5596 82.1425 94.6676 84.8605 88.8777 84.9948L88.4286 85H75.5714C69.0615 85 64.9165 81.7553 62.5546 78.9624L62.2501 78.5931C62.2012 78.5321 62.153 78.4713 62.1058 78.411L61.8325 78.0533C61.7886 77.9945 61.7456 77.9361 61.7035 77.8782L61.4606 77.5365L61.2377 77.208L60.9399 76.7442L60.7653 76.4571L60.5388 76.0644L60.3008 75.6221L60.1029 75.2216L60.0032 75H57V65H63.0443C63.0202 64.9731 63.0228 64.8754 63.0322 64.76L63.0543 64.5216C63.064 64.4063 63.0673 64.3089 63.0443 64.2826C62.44 63.5813 61.9829 62.9386 61.7257 62.3896C61.4312 61.7611 61.1645 60.9369 60.9235 59.9857L60.7821 59.4003C60.7359 59.2005 60.6908 58.9961 60.6467 58.7877L60.5173 58.1513C60.4963 58.0434 60.4755 57.9346 60.4549 57.8251L60.3344 57.159L60.2196 56.4773L60.1106 55.7833L59.9575 54.7263L59.8167 53.6602L59.6879 52.5961L59.5708 51.545L59.465 50.5182L59.3131 48.891L59.1904 47.4136L59.0798 45.9112L58.9619 44ZM78 66C77.9983 65.6387 77.9884 65.2639 77.971 64.8796L77.926 64.0936C77.6892 60.6432 76.92 56.6879 76.1246 54.9913C74.3801 51.2678 71.4564 48.8171 67.6857 47.3799C65.5889 46.5807 63.4788 46.1775 61.6135 46.0478L61.092 46.018L61.1587 46.9257C61.3322 49.2023 61.553 51.4778 61.8245 53.5942L61.989 54.81L62.103 55.5807L62.2204 56.3178L62.3409 57.02L62.4643 57.686L62.5905 58.3142C62.6118 58.4157 62.6332 58.5156 62.6546 58.6138L62.7847 59.183C62.8066 59.2745 62.8285 59.3642 62.8506 59.4522L62.9841 59.9592C63.1635 60.6067 63.3484 61.139 63.5369 61.5413C63.697 61.8831 64.0451 62.3802 64.5501 62.9663C64.8939 63.3596 65.0005 63.7064 65.046 64.1006L65.058 64.25L66.6261 66H72.4999L72.4905 65.7539L72.4722 65.5005C72.4681 65.4527 72.4636 65.402 72.4585 65.3487C72.4069 64.8075 72.3153 64.1959 72.1738 63.5275C71.7682 61.6127 71.0438 59.6338 69.9218 57.6991C68.791 55.7492 67.6737 54.246 66.6212 53.1336C66.2572 52.7489 65.9287 52.441 65.642 52.2031L65.4695 52.0642L65.3518 51.9765L65.3144 51.9511L65.8575 51.1114L65.9371 51.165L66.1223 51.3018L66.3409 51.4795C66.4973 51.6121 66.6751 51.7729 66.8722 51.9641L67.1822 52.2739C67.2362 52.3294 67.2913 52.3869 67.3476 52.4463C68.4539 53.6156 69.6176 55.1812 70.7869 57.1974C71.9649 59.2288 72.7256 61.3067 73.1521 63.3203C73.3017 64.0269 73.3989 64.6759 73.454 65.2538L73.4893 65.7049L73.4987 65.9184L73.5 65.9979L73 66H78ZM67.5221 67H60H59V73H60H61.3398H102.771H104H105V67H104H99.0342H67.5221ZM99.0342 66H82L82.0032 65.7104C82.1207 60.3237 85.5142 56 90.5 56C95.7768 56 99.0342 59.777 99.0342 65V66ZM61.8869 74.3181L61.7549 74H102.347L102.254 74.2195L102.09 74.5584L101.924 74.8756C101.118 76.3668 99.888 78.0022 98.2158 79.4396C95.5887 81.6978 92.3668 83 88.4286 83H75.5714L75.1456 82.9949C70.9163 82.893 67.561 81.2701 64.9262 78.5962C63.9649 77.6207 63.1716 76.5725 62.5402 75.5279L62.3148 75.1438C62.2807 75.0839 62.2483 75.0261 62.2177 74.9705L62.0548 74.6648C62.0311 74.6186 62.0091 74.5748 61.9887 74.5337L61.8869 74.3181ZM91 58V59H90V58H91ZM91 61V60H90V61H91ZM91 62V63H90V62H91ZM91 65V64H90V65H91ZM93 63V64H92V63H93ZM95 64V63H94V64H95ZM97 62V63H96V62H97ZM94 62V61H93V62H94ZM95 59V60H94V59H95ZM87 60V59H86V60H87ZM88 61V62H87V61H88ZM89 64V63H88V64H89ZM87 63V64H86V63H87ZM85 63V62H84V63H85Z" fill="#212121"/>
</g>
<defs>
<clipPath id="clip0_878_101544">
<rect width="165" height="165" fill="white"/>
</clipPath>
</defs>
</svg>
