<svg width="165" height="165" viewBox="0 0 165 165" fill="none" xmlns="http://www.w3.org/2000/svg">
<g clip-path="url(#clip0_878_101631)">
<path fill-rule="evenodd" clip-rule="evenodd" d="M82.5 165C128.063 165 165 128.063 165 82.5C165 36.9365 128.063 0 82.5 0C36.9365 0 0 36.9365 0 82.5C0 128.063 36.9365 165 82.5 165Z" fill="white"/>
<path d="M48.6562 103.578H51.8828C53.3984 103.578 54.4948 103.805 55.1719 104.258C55.849 104.711 56.1875 105.427 56.1875 106.406C56.1875 107.083 55.9974 107.643 55.6172 108.086C55.2422 108.523 54.6927 108.807 53.9688 108.938V109.016C55.7031 109.312 56.5703 110.224 56.5703 111.75C56.5703 112.771 56.224 113.568 55.5312 114.141C54.8438 114.714 53.8802 115 52.6406 115H48.6562V103.578ZM49.9844 108.469H52.1719C53.1094 108.469 53.7839 108.323 54.1953 108.031C54.6068 107.734 54.8125 107.237 54.8125 106.539C54.8125 105.898 54.5833 105.438 54.125 105.156C53.6667 104.87 52.9375 104.727 51.9375 104.727H49.9844V108.469ZM49.9844 109.594V113.867H52.3672C53.2891 113.867 53.9818 113.69 54.4453 113.336C54.9141 112.977 55.1484 112.417 55.1484 111.656C55.1484 110.948 54.9089 110.427 54.4297 110.094C53.9557 109.76 53.2318 109.594 52.2578 109.594H49.9844ZM62.7422 106.281C63.1224 106.281 63.4635 106.312 63.7656 106.375L63.5859 107.578C63.2318 107.5 62.9193 107.461 62.6484 107.461C61.9557 107.461 61.362 107.742 60.8672 108.305C60.3776 108.867 60.1328 109.568 60.1328 110.406V115H58.8359V106.438H59.9062L60.0547 108.023H60.1172C60.4349 107.466 60.8177 107.036 61.2656 106.734C61.7135 106.432 62.2057 106.281 62.7422 106.281ZM68.9844 115.156C67.7188 115.156 66.7188 114.771 65.9844 114C65.2552 113.229 64.8906 112.159 64.8906 110.789C64.8906 109.409 65.2292 108.312 65.9062 107.5C66.5885 106.688 67.5026 106.281 68.6484 106.281C69.7214 106.281 70.5703 106.635 71.1953 107.344C71.8203 108.047 72.1328 108.977 72.1328 110.133V110.953H66.2344C66.2604 111.958 66.513 112.721 66.9922 113.242C67.4766 113.763 68.1562 114.023 69.0312 114.023C69.9531 114.023 70.8646 113.831 71.7656 113.445V114.602C71.3073 114.799 70.8724 114.94 70.4609 115.023C70.0547 115.112 69.5625 115.156 68.9844 115.156ZM68.6328 107.367C67.9453 107.367 67.3958 107.591 66.9844 108.039C66.5781 108.487 66.3385 109.107 66.2656 109.898H70.7422C70.7422 109.081 70.5599 108.456 70.1953 108.023C69.8307 107.586 69.3099 107.367 68.6328 107.367ZM79.6172 115L79.3594 113.781H79.2969C78.8698 114.318 78.4427 114.682 78.0156 114.875C77.5938 115.062 77.0651 115.156 76.4297 115.156C75.5807 115.156 74.9141 114.938 74.4297 114.5C73.9505 114.062 73.7109 113.44 73.7109 112.633C73.7109 110.904 75.0938 109.997 77.8594 109.914L79.3125 109.867V109.336C79.3125 108.664 79.1667 108.169 78.875 107.852C78.5885 107.529 78.1276 107.367 77.4922 107.367C76.7786 107.367 75.9714 107.586 75.0703 108.023L74.6719 107.031C75.0938 106.802 75.5547 106.622 76.0547 106.492C76.5599 106.362 77.0651 106.297 77.5703 106.297C78.5911 106.297 79.3464 106.523 79.8359 106.977C80.3307 107.43 80.5781 108.156 80.5781 109.156V115H79.6172ZM76.6875 114.086C77.4948 114.086 78.1276 113.865 78.5859 113.422C79.0495 112.979 79.2812 112.359 79.2812 111.562V110.789L77.9844 110.844C76.9531 110.88 76.2083 111.042 75.75 111.328C75.2969 111.609 75.0703 112.049 75.0703 112.648C75.0703 113.117 75.2109 113.474 75.4922 113.719C75.7786 113.964 76.1771 114.086 76.6875 114.086ZM84.5391 110.617C84.763 110.299 85.1042 109.883 85.5625 109.367L88.3281 106.438H89.8672L86.3984 110.086L90.1094 115H88.5391L85.5156 110.953L84.5391 111.797V115H83.2578V102.844H84.5391V109.289C84.5391 109.576 84.5182 110.018 84.4766 110.617H84.5391ZM95.5234 107.445H93.3438V115H92.0469V107.445H90.5156V106.859L92.0469 106.391V105.914C92.0469 103.81 92.9661 102.758 94.8047 102.758C95.2578 102.758 95.7891 102.849 96.3984 103.031L96.0625 104.07C95.5625 103.909 95.1354 103.828 94.7812 103.828C94.2917 103.828 93.9297 103.992 93.6953 104.32C93.4609 104.643 93.3438 105.164 93.3438 105.883V106.438H95.5234V107.445ZM102.352 115L102.094 113.781H102.031C101.604 114.318 101.177 114.682 100.75 114.875C100.328 115.062 99.7995 115.156 99.1641 115.156C98.3151 115.156 97.6484 114.938 97.1641 114.5C96.6849 114.062 96.4453 113.44 96.4453 112.633C96.4453 110.904 97.8281 109.997 100.594 109.914L102.047 109.867V109.336C102.047 108.664 101.901 108.169 101.609 107.852C101.323 107.529 100.862 107.367 100.227 107.367C99.513 107.367 98.7057 107.586 97.8047 108.023L97.4062 107.031C97.8281 106.802 98.2891 106.622 98.7891 106.492C99.2943 106.362 99.7995 106.297 100.305 106.297C101.326 106.297 102.081 106.523 102.57 106.977C103.065 107.43 103.312 108.156 103.312 109.156V115H102.352ZM99.4219 114.086C100.229 114.086 100.862 113.865 101.32 113.422C101.784 112.979 102.016 112.359 102.016 111.562V110.789L100.719 110.844C99.6875 110.88 98.9427 111.042 98.4844 111.328C98.0312 111.609 97.8047 112.049 97.8047 112.648C97.8047 113.117 97.9453 113.474 98.2266 113.719C98.513 113.964 98.9115 114.086 99.4219 114.086ZM111.516 112.664C111.516 113.461 111.219 114.076 110.625 114.508C110.031 114.94 109.198 115.156 108.125 115.156C106.99 115.156 106.104 114.977 105.469 114.617V113.414C105.88 113.622 106.32 113.786 106.789 113.906C107.263 114.026 107.719 114.086 108.156 114.086C108.833 114.086 109.354 113.979 109.719 113.766C110.083 113.547 110.266 113.216 110.266 112.773C110.266 112.44 110.12 112.156 109.828 111.922C109.542 111.682 108.979 111.401 108.141 111.078C107.344 110.781 106.776 110.523 106.438 110.305C106.104 110.081 105.854 109.828 105.688 109.547C105.526 109.266 105.445 108.93 105.445 108.539C105.445 107.841 105.729 107.292 106.297 106.891C106.865 106.484 107.643 106.281 108.633 106.281C109.555 106.281 110.456 106.469 111.336 106.844L110.875 107.898C110.016 107.544 109.237 107.367 108.539 107.367C107.924 107.367 107.461 107.464 107.148 107.656C106.836 107.849 106.68 108.115 106.68 108.453C106.68 108.682 106.737 108.878 106.852 109.039C106.971 109.201 107.161 109.354 107.422 109.5C107.682 109.646 108.182 109.857 108.922 110.133C109.938 110.503 110.622 110.875 110.977 111.25C111.336 111.625 111.516 112.096 111.516 112.664ZM116.398 114.086C116.628 114.086 116.849 114.07 117.062 114.039C117.276 114.003 117.445 113.966 117.57 113.93V114.922C117.43 114.99 117.221 115.044 116.945 115.086C116.674 115.133 116.43 115.156 116.211 115.156C114.555 115.156 113.727 114.284 113.727 112.539V107.445H112.5V106.82L113.727 106.281L114.273 104.453H115.023V106.438H117.508V107.445H115.023V112.484C115.023 113 115.146 113.396 115.391 113.672C115.635 113.948 115.971 114.086 116.398 114.086Z" fill="#212121"/>
<path fill-rule="evenodd" clip-rule="evenodd" d="M88.3806 44.3419C87.4004 42.3617 85.3592 41 83 41C80.6408 41 78.5996 42.3617 77.6208 44.342C77.1254 44.1222 76.577 44 76 44C73.7909 44 72 45.7909 72 48C72 49.0144 72.3776 49.9406 72.9999 50.6458L73.0006 54H73V54.411C72.358 55.8078 72 57.3621 72 59C72 61.1575 72.6211 63.1699 73.6943 64.8682C73.7179 64.9132 73.7419 64.9581 73.7661 65.0027L73.4341 65.0148C67.6212 65.3138 63 70.1164 63 76V85.0088L63.0055 85.1574C63.0815 86.1877 63.9418 87 64.9973 87H101.003L101.152 86.9945C102.185 86.9187 103 86.0603 103 85.0088V76L102.996 75.7106C102.845 69.85 98.1096 65.1298 92.234 65.0025C92.2582 64.9579 92.2821 64.9132 92.3057 64.8682C93.3789 63.1699 94 61.1575 94 59C94 57.3626 93.6422 55.8088 93.0006 54.4124L93.001 50.6447C93.6227 49.9397 94 49.0139 94 48C94 45.7909 92.2091 44 90 44C89.423 44 88.8746 44.1222 88.3806 44.3419ZM74.8178 55.245L74.9305 55H91.0696L91.1833 55.2475L91.3364 55.6004C91.7724 56.6681 92 57.8164 92 59C92 60.7707 91.4898 62.4605 90.5445 63.9095L88.5752 66.9283L89.4802 66.9468C88.0118 68.3171 86.1085 69.2274 84 69.448V68.5H80.5L80.3006 68.5049C79.9203 68.5236 79.5538 68.5954 79.2084 68.7132C77.238 67.8545 75.6153 66.3471 74.6103 64.4607L75.4555 63.9095L75.2722 63.6165C74.4445 62.2348 74 60.6526 74 59C74 57.684 74.2814 56.4116 74.8178 55.245ZM78.1082 69.2933C76.4223 68.404 75.0077 67.0694 74.021 65.4461L74.0288 66.9999L74.009 66.999C69.1217 67 65.1443 70.8864 65.0038 75.7346L65 76L64.9987 84.9354L65 85L76.5 85.0004V72.4921C76.5 71.1835 77.1325 70.0214 78.1082 69.2933ZM77.5 85.0005L100.93 85.0013L101 84.999L101 76.0258L100.997 75.7623C100.875 71.0489 97.1291 67.2406 92.4403 67.0109L92.1789 67.0018L90.849 66.9747C88.9257 69.1375 86.1219 70.5 83 70.5C81.6617 70.5 80.3819 70.2496 79.2049 69.7932C78.2471 70.2519 77.5699 71.2032 77.5051 72.3165L77.5 72.4921V85.0005ZM75.0006 54H91.0007L91.0009 51.3548C90.7425 51.4318 90.4716 51.4797 90.192 51.4948L90 51.5V50.5C90.3559 50.5 90.6945 50.4256 91.001 50.2915L91.001 49.8887L91.501 49.3218C91.8217 48.9582 92 48.4956 92 48C92 46.8954 91.1046 46 90 46C89.7722 46 89.5524 46.0373 89.3458 46.1091L89.1935 46.1693L87.4397 46.9495L86.5881 45.2291C85.9176 43.8745 84.5378 43 83 43C81.5355 43 80.2146 43.7931 79.5141 45.038L79.4138 45.2281L78.5636 46.9484L76.8096 46.1701C76.5579 46.0584 76.2849 46 76 46C74.8954 46 74 46.8954 74 48C74 48.4339 74.1367 48.8424 74.3858 49.1814L74.4994 49.3223L74.9998 49.8892L74.9999 50.2919C75.2586 50.405 75.5401 50.4755 75.8356 50.4947L76 50.5V51.5C75.6525 51.5 75.3169 51.4494 75.0001 51.3551L75.0006 54ZM79.5 49C79.5 50.3444 81.0409 51.5 83 51.5C84.8892 51.5 86.3894 50.4254 86.4942 49.1433L86.5 49H87.5C87.5 50.9694 85.4591 52.5 83 52.5C80.6154 52.5 78.6241 51.0607 78.5056 49.1778L78.5 49H79.5ZM82 73V74H81V73H82ZM82 77V76H81V77H82ZM82 79V80H81V79H82ZM82 83V82H81V83H82Z" fill="#212121"/>
</g>
<defs>
<clipPath id="clip0_878_101631">
<rect width="165" height="165" fill="white"/>
</clipPath>
</defs>
</svg>
