<svg width="165" height="165" viewBox="0 0 165 165" fill="none" xmlns="http://www.w3.org/2000/svg">
<g clip-path="url(#clip0_878_101582)">
<path fill-rule="evenodd" clip-rule="evenodd" d="M82.5 165C128.063 165 165 128.063 165 82.5C165 36.9365 128.063 0 82.5 0C36.9365 0 0 36.9365 0 82.5C0 128.063 36.9365 165 82.5 165Z" fill="white"/>
<path d="M60.3594 109V97.5781H61.6875V107.797H66.7266V109H60.3594ZM69.6953 100.438V105.992C69.6953 106.69 69.8542 107.211 70.1719 107.555C70.4896 107.898 70.987 108.07 71.6641 108.07C72.5599 108.07 73.2135 107.826 73.625 107.336C74.0417 106.846 74.25 106.047 74.25 104.938V100.438H75.5469V109H74.4766L74.2891 107.852H74.2188C73.9531 108.273 73.5833 108.596 73.1094 108.82C72.6406 109.044 72.1042 109.156 71.5 109.156C70.4583 109.156 69.6771 108.909 69.1562 108.414C68.6406 107.919 68.3828 107.128 68.3828 106.039V100.438H69.6953ZM84.1641 109V103.461C84.1641 102.763 84.0052 102.242 83.6875 101.898C83.3698 101.555 82.8724 101.383 82.1953 101.383C81.2995 101.383 80.6432 101.625 80.2266 102.109C79.8099 102.594 79.6016 103.393 79.6016 104.508V109H78.3047V100.438H79.3594L79.5703 101.609H79.6328C79.8984 101.188 80.2708 100.862 80.75 100.633C81.2292 100.398 81.763 100.281 82.3516 100.281C83.3828 100.281 84.1589 100.531 84.6797 101.031C85.2005 101.526 85.4609 102.32 85.4609 103.414V109H84.1641ZM91.5547 109.156C90.3151 109.156 89.3542 108.776 88.6719 108.016C87.9948 107.25 87.6562 106.169 87.6562 104.773C87.6562 103.341 88 102.234 88.6875 101.453C89.3802 100.672 90.3646 100.281 91.6406 100.281C92.0521 100.281 92.4635 100.326 92.875 100.414C93.2865 100.503 93.6094 100.607 93.8438 100.727L93.4453 101.828C93.1589 101.714 92.8464 101.62 92.5078 101.547C92.1693 101.469 91.8698 101.43 91.6094 101.43C89.8698 101.43 89 102.539 89 104.758C89 105.81 89.2109 106.617 89.6328 107.18C90.0599 107.742 90.6901 108.023 91.5234 108.023C92.237 108.023 92.9688 107.87 93.7188 107.562V108.711C93.1458 109.008 92.4245 109.156 91.5547 109.156ZM101.617 109V103.461C101.617 102.763 101.458 102.242 101.141 101.898C100.823 101.555 100.326 101.383 99.6484 101.383C98.7474 101.383 98.0885 101.628 97.6719 102.117C97.2604 102.607 97.0547 103.409 97.0547 104.523V109H95.7578V96.8438H97.0547V100.523C97.0547 100.966 97.0339 101.333 96.9922 101.625H97.0703C97.3255 101.214 97.6875 100.891 98.1562 100.656C98.6302 100.417 99.1693 100.297 99.7734 100.297C100.82 100.297 101.604 100.547 102.125 101.047C102.651 101.542 102.914 102.331 102.914 103.414V109H101.617Z" fill="#212121"/>
<path fill-rule="evenodd" clip-rule="evenodd" d="M80.5938 47C84.327 47 87.3808 49.9311 87.6111 53.6336C87.77 53.6187 87.931 53.6111 88.0938 53.6111C90.0853 53.6111 91.8131 54.7486 92.6721 56.4138C93.5025 55.8374 94.509 55.5 95.5938 55.5C98.4415 55.5 100.75 57.8256 100.75 60.6944C100.75 60.8616 100.742 61.0269 100.727 61.19C100.889 61.1746 101.053 61.1667 101.219 61.1667C104.066 61.1667 106.375 63.4923 106.375 66.3611C106.375 66.8522 106.18 67.5497 106.053 68H112V75H107V77C107 79.0822 105.637 81 103.569 81H60.4306C58.3719 81 57 79.3086 57 77.2222V75H52V68H58C58 65.9978 58.8619 64.0644 60.608 63.3775C60.4969 62.9745 60.4375 62.5498 60.4375 62.1111C60.4375 59.5031 62.5362 57.3889 65.125 57.3889C65.4507 57.3889 65.7687 57.4224 66.0757 57.4861C66.2665 54.7923 68.4962 52.6667 71.2188 52.6667C72.0817 52.6667 72.8951 52.8802 73.6098 53.2577C74.0157 49.7347 76.9877 47 80.5938 47ZM76 54C76 51.3067 78.1294 49.1108 80.7965 49.0041C83.3608 49.1071 85.4531 51.1568 85.6149 53.7577L85.7309 55.6224C85.0571 57.5875 83.1935 59 81 59C78.2386 59 76 56.7614 76 54ZM75.2618 56.3922L75.3156 55.9254C76.1178 58.2947 78.3598 60 81 60C81.5054 60 81.9962 59.9375 82.4651 59.8198C82.7172 62.2798 84.6657 64.2342 87.1143 64.475C85.9411 64.6164 84.9152 65.2387 84.2362 66.1402C83.985 62.9855 81.4342 60.5 78.3158 60.5C76.1578 60.5 74.2716 61.6902 73.2312 63.4688C73.0265 62.9032 72.713 62.3948 72.3186 61.9652C74.1152 61.4778 75.4375 59.825 75.4375 57.8611C75.4375 57.3242 75.3387 56.8105 75.1583 56.3375L75.2618 56.3922ZM72.4968 67.8276C72.1067 68.3089 71.6174 68.7108 71.0551 69H72.8561C72.6995 68.6189 72.5783 68.2256 72.4968 67.8276ZM73.9534 69H82.8097C83.0993 68.3217 83.2565 67.4938 83.2565 66.6523C83.2565 63.8026 81.0401 61.5 78.3158 61.5C75.5914 61.5 73.375 63.8026 73.375 66.6523C73.375 67.4409 73.5832 68.2542 73.9534 69ZM83.8802 69H91.7002C91.6617 68.9095 91.6286 68.8167 91.601 68.7222H90.875C90.875 66.9111 89.4191 65.4444 87.625 65.4444C85.8928 65.4444 84.4758 66.8117 84.3801 68.5361L84.375 68.7222H83.9686C83.9411 68.8162 83.9116 68.9088 83.8802 69ZM91.617 67.2512C91.0774 65.768 89.745 64.669 88.1357 64.475C89.6073 64.3303 90.8983 63.5666 91.7489 62.4462C92.4114 63.9195 93.8838 64.9444 95.5938 64.9444C96.0015 64.9444 96.3957 64.8862 96.7687 64.7775C96.5947 65.2728 96.5 65.8059 96.5 66.3611C96.5 67.3175 96.7824 68.2299 97.2945 69H96.2539L96.2915 68.9226C96.4325 68.611 96.5 68.338 96.5 68.0133C96.5 66.626 95.3815 65.5 94 65.5C92.8831 65.5 91.938 66.2361 91.617 67.2512ZM97.5 66.3611C97.5 65.1367 98.0818 64.0498 98.9814 63.3655L100.917 63.181L101.067 63.1703L101.219 63.1667C102.959 63.1667 104.375 64.5936 104.375 66.3611C104.375 66.4239 104.359 66.5303 104.327 66.6814L104.266 66.9416L104.18 67.2697L103.695 69H98.5126L98.5457 68.9682L98.397 68.8038C97.8229 68.1305 97.5 67.2721 97.5 66.3611ZM93.306 58.4083L93.8124 58.0569L93.9893 57.9426C94.47 57.6544 95.0185 57.5 95.5938 57.5C97.3336 57.5 98.75 58.9269 98.75 60.6944C98.75 60.7982 98.7452 60.9011 98.7356 61.0029L98.6765 61.6324C98.2776 62.9709 97.0473 63.9444 95.5938 63.9444C94.0098 63.9444 92.6909 62.7883 92.4242 61.2637C92.6745 60.6515 92.8125 59.9808 92.8125 59.2778C92.8125 59.2064 92.8111 59.1354 92.8083 59.0647C92.9463 58.8247 93.1139 58.6042 93.306 58.4083ZM91.7383 58.9664L90.8946 57.3306C90.3529 56.2804 89.2817 55.6111 88.0938 55.6111L87.9448 55.6146L87.7973 55.6249L86.749 55.7229C86.2458 57.4043 85.0251 58.7759 83.4423 59.4821C83.548 61.7198 85.381 63.5 87.625 63.5C89.2835 63.5 90.7175 62.5276 91.3956 61.1167C91.382 60.9778 91.375 60.8369 91.375 60.6944C91.375 60.0791 91.5048 59.4943 91.7383 58.9664ZM92.2563 69H95.9754L95.3094 68.6563C95.4474 68.3889 95.5 68.2183 95.5 68.0133C95.5 67.1768 94.8277 66.5 94 66.5C93.1723 66.5 92.5 67.1768 92.5 68.0133C92.5 68.2249 92.5428 68.4294 92.6243 68.6177L92.6926 68.7558L92.2563 69ZM66.4571 68.7283C66.6045 68.8276 66.7578 68.9184 66.9163 69H66.3864C66.4129 68.9103 66.4365 68.8197 66.4571 68.7283ZM65.559 67.9314C65.1709 67.4818 64.869 66.9524 64.6823 66.3659C64.6292 66.3602 64.576 66.3535 64.5227 66.3458L64.3134 66.3102L64.5006 65.3541C64.0878 64.9749 63.5779 64.7015 63.013 64.5764L63.0141 64.5801L61.3402 65.2386C60.5989 65.5303 60.0624 66.4823 60.0051 67.7694L60 68V69H65.3292C65.4639 68.6622 65.5421 68.3023 65.559 67.9314ZM69.4134 68.4735C68.3245 68.6067 67.2911 68.2289 66.5554 67.5292C66.5295 67.0734 66.4326 66.6367 66.2758 66.2301C67.7719 65.8053 68.9806 64.5669 69.297 62.9267C69.3787 62.5033 69.3953 62.0824 69.3539 61.6744C69.8423 61.9173 70.3841 62.0677 70.9568 62.1031C71.7672 62.6504 72.3448 63.5302 72.4734 64.5737C72.7098 66.4915 71.3403 68.2378 69.4134 68.4735ZM68.8636 60.0764C69.0138 60.2391 69.1804 60.3863 69.3606 60.5151C70.0414 60.5711 70.6864 60.78 71.2559 61.1109C73.0148 61.0908 74.4375 59.6451 74.4375 57.8611C74.4375 56.8261 73.9587 55.9051 73.2132 55.3101L72.6756 55.0262C72.2302 54.7909 71.7355 54.6667 71.2188 54.6667C69.6233 54.6667 68.2873 55.8715 68.0881 57.4504L68.0707 57.6274L68.0252 58.27C68.0711 58.6389 68.1781 58.9885 68.3358 59.3081C68.5389 59.5442 68.716 59.8019 68.8636 60.0764ZM67.5045 59.8781C67.6527 60.1545 67.8303 60.4124 68.0333 60.6477C68.3425 61.2715 68.4575 61.9994 68.3152 62.7372C68.0577 64.0715 67.0319 65.0574 65.7915 65.3201C65.0964 64.3251 63.9906 63.6416 62.7217 63.5196L62.5361 62.846L62.4932 62.6671C62.4563 62.4864 62.4375 62.3006 62.4375 62.1111C62.4375 60.6044 63.6441 59.3889 65.125 59.3889C65.3105 59.3889 65.4923 59.4076 65.6693 59.4443L67.4421 59.8123C67.4632 59.8339 67.484 59.8559 67.5045 59.8781ZM106 70H103.415H60H56H54V73H56H59H105H106H110V70H106ZM59 77.2222V74H105V77L104.995 77.1738C104.933 78.2571 104.295 79 103.569 79H60.4306L60.2937 78.9938C59.5308 78.9234 59 78.2611 59 77.2222Z" fill="#212121"/>
</g>
<defs>
<clipPath id="clip0_878_101582">
<rect width="165" height="165" fill="white"/>
</clipPath>
</defs>
</svg>
