<svg width="165" height="165" viewBox="0 0 165 165" fill="none" xmlns="http://www.w3.org/2000/svg">
<g clip-path="url(#clip0_878_101568)">
<path fill-rule="evenodd" clip-rule="evenodd" d="M82.5 165C128.063 165 165 128.063 165 82.5C165 36.9365 128.063 0 82.5 0C36.9365 0 0 36.9365 0 82.5C0 128.063 36.9365 165 82.5 165Z" fill="white"/>
<path d="M60.8125 108.171C60.8125 110.056 60.2995 111.499 59.2734 112.499C58.2526 113.494 56.7812 113.991 54.8594 113.991H51.6953V102.569H55.1953C56.9714 102.569 58.3516 103.061 59.3359 104.046C60.3203 105.03 60.8125 106.405 60.8125 108.171ZM59.4062 108.218C59.4062 106.728 59.0312 105.606 58.2812 104.85C57.5365 104.095 56.4271 103.718 54.9531 103.718H53.0234V112.843H54.6406C56.224 112.843 57.4141 112.455 58.2109 111.678C59.0078 110.897 59.4062 109.744 59.4062 108.218ZM66.7891 114.147C65.5234 114.147 64.5234 113.762 63.7891 112.991C63.0599 112.22 62.6953 111.15 62.6953 109.78C62.6953 108.4 63.0339 107.303 63.7109 106.491C64.3932 105.678 65.3073 105.272 66.4531 105.272C67.526 105.272 68.375 105.626 69 106.335C69.625 107.038 69.9375 107.968 69.9375 109.124V109.944H64.0391C64.0651 110.949 64.3177 111.712 64.7969 112.233C65.2812 112.754 65.9609 113.014 66.8359 113.014C67.7578 113.014 68.6693 112.822 69.5703 112.436V113.593C69.112 113.79 68.6771 113.931 68.2656 114.014C67.8594 114.103 67.3672 114.147 66.7891 114.147ZM66.4375 106.358C65.75 106.358 65.2005 106.582 64.7891 107.03C64.3828 107.478 64.1432 108.098 64.0703 108.889H68.5469C68.5469 108.072 68.3646 107.447 68 107.014C67.6354 106.577 67.1146 106.358 66.4375 106.358ZM77.6797 111.655C77.6797 112.452 77.3828 113.066 76.7891 113.499C76.1953 113.931 75.362 114.147 74.2891 114.147C73.1536 114.147 72.2682 113.968 71.6328 113.608V112.405C72.0443 112.613 72.4844 112.777 72.9531 112.897C73.4271 113.017 73.8828 113.077 74.3203 113.077C74.9974 113.077 75.5182 112.97 75.8828 112.757C76.2474 112.538 76.4297 112.207 76.4297 111.764C76.4297 111.431 76.2839 111.147 75.9922 110.913C75.7057 110.673 75.1432 110.392 74.3047 110.069C73.5078 109.772 72.9401 109.514 72.6016 109.296C72.2682 109.072 72.0182 108.819 71.8516 108.538C71.6901 108.257 71.6094 107.921 71.6094 107.53C71.6094 106.832 71.8932 106.283 72.4609 105.882C73.0286 105.475 73.8073 105.272 74.7969 105.272C75.7188 105.272 76.6198 105.46 77.5 105.835L77.0391 106.889C76.1797 106.535 75.401 106.358 74.7031 106.358C74.0885 106.358 73.625 106.455 73.3125 106.647C73 106.84 72.8438 107.106 72.8438 107.444C72.8438 107.673 72.901 107.869 73.0156 108.03C73.1354 108.191 73.3255 108.345 73.5859 108.491C73.8464 108.637 74.3464 108.848 75.0859 109.124C76.1016 109.494 76.7865 109.866 77.1406 110.241C77.5 110.616 77.6797 111.087 77.6797 111.655ZM85.3203 111.655C85.3203 112.452 85.0234 113.066 84.4297 113.499C83.8359 113.931 83.0026 114.147 81.9297 114.147C80.7943 114.147 79.9089 113.968 79.2734 113.608V112.405C79.6849 112.613 80.125 112.777 80.5938 112.897C81.0677 113.017 81.5234 113.077 81.9609 113.077C82.638 113.077 83.1589 112.97 83.5234 112.757C83.888 112.538 84.0703 112.207 84.0703 111.764C84.0703 111.431 83.9245 111.147 83.6328 110.913C83.3464 110.673 82.7839 110.392 81.9453 110.069C81.1484 109.772 80.5807 109.514 80.2422 109.296C79.9089 109.072 79.6589 108.819 79.4922 108.538C79.3307 108.257 79.25 107.921 79.25 107.53C79.25 106.832 79.5339 106.283 80.1016 105.882C80.6693 105.475 81.4479 105.272 82.4375 105.272C83.3594 105.272 84.2604 105.46 85.1406 105.835L84.6797 106.889C83.8203 106.535 83.0417 106.358 82.3438 106.358C81.7292 106.358 81.2656 106.455 80.9531 106.647C80.6406 106.84 80.4844 107.106 80.4844 107.444C80.4844 107.673 80.5417 107.869 80.6562 108.03C80.776 108.191 80.9661 108.345 81.2266 108.491C81.487 108.637 81.987 108.848 82.7266 109.124C83.7422 109.494 84.4271 109.866 84.7812 110.241C85.1406 110.616 85.3203 111.087 85.3203 111.655ZM91.0547 114.147C89.7891 114.147 88.7891 113.762 88.0547 112.991C87.3255 112.22 86.9609 111.15 86.9609 109.78C86.9609 108.4 87.2995 107.303 87.9766 106.491C88.6589 105.678 89.5729 105.272 90.7188 105.272C91.7917 105.272 92.6406 105.626 93.2656 106.335C93.8906 107.038 94.2031 107.968 94.2031 109.124V109.944H88.3047C88.3307 110.949 88.5833 111.712 89.0625 112.233C89.5469 112.754 90.2266 113.014 91.1016 113.014C92.0234 113.014 92.9349 112.822 93.8359 112.436V113.593C93.3776 113.79 92.9427 113.931 92.5312 114.014C92.125 114.103 91.6328 114.147 91.0547 114.147ZM90.7031 106.358C90.0156 106.358 89.4661 106.582 89.0547 107.03C88.6484 107.478 88.4089 108.098 88.3359 108.889H92.8125C92.8125 108.072 92.6302 107.447 92.2656 107.014C91.901 106.577 91.3802 106.358 90.7031 106.358ZM100.328 105.272C100.708 105.272 101.049 105.303 101.352 105.366L101.172 106.569C100.818 106.491 100.505 106.452 100.234 106.452C99.5417 106.452 98.9479 106.733 98.4531 107.296C97.9635 107.858 97.7188 108.559 97.7188 109.397V113.991H96.4219V105.428H97.4922L97.6406 107.014H97.7031C98.0208 106.457 98.4036 106.027 98.8516 105.725C99.2995 105.423 99.7917 105.272 100.328 105.272ZM105.719 113.077C105.948 113.077 106.169 113.061 106.383 113.03C106.596 112.994 106.766 112.957 106.891 112.921V113.913C106.75 113.981 106.542 114.035 106.266 114.077C105.995 114.124 105.75 114.147 105.531 114.147C103.875 114.147 103.047 113.275 103.047 111.53V106.436H101.82V105.811L103.047 105.272L103.594 103.444H104.344V105.428H106.828V106.436H104.344V111.475C104.344 111.991 104.466 112.387 104.711 112.663C104.956 112.939 105.292 113.077 105.719 113.077ZM114.133 111.655C114.133 112.452 113.836 113.066 113.242 113.499C112.648 113.931 111.815 114.147 110.742 114.147C109.607 114.147 108.721 113.968 108.086 113.608V112.405C108.497 112.613 108.938 112.777 109.406 112.897C109.88 113.017 110.336 113.077 110.773 113.077C111.451 113.077 111.971 112.97 112.336 112.757C112.701 112.538 112.883 112.207 112.883 111.764C112.883 111.431 112.737 111.147 112.445 110.913C112.159 110.673 111.596 110.392 110.758 110.069C109.961 109.772 109.393 109.514 109.055 109.296C108.721 109.072 108.471 108.819 108.305 108.538C108.143 108.257 108.062 107.921 108.062 107.53C108.062 106.832 108.346 106.283 108.914 105.882C109.482 105.475 110.26 105.272 111.25 105.272C112.172 105.272 113.073 105.46 113.953 105.835L113.492 106.889C112.633 106.535 111.854 106.358 111.156 106.358C110.542 106.358 110.078 106.455 109.766 106.647C109.453 106.84 109.297 107.106 109.297 107.444C109.297 107.673 109.354 107.869 109.469 108.03C109.589 108.191 109.779 108.345 110.039 108.491C110.299 108.637 110.799 108.848 111.539 109.124C112.555 109.494 113.24 109.866 113.594 110.241C113.953 110.616 114.133 111.087 114.133 111.655Z" fill="#212121"/>
<path fill-rule="evenodd" clip-rule="evenodd" d="M91.594 44L91.4428 44.4065L91.3005 44.8116L91.1309 45.3234L91.0089 45.7135L90.8219 46.357L90.7 46.816L90.5848 47.2917C90.4371 47.9346 90.3171 48.6061 90.2646 49.241C90.6046 49.0651 90.8033 49.0061 90.9619 49.0061C91.0358 49.0061 91.1012 49.0186 91.1682 49.0378L91.4687 49.1371C91.6173 49.182 91.8077 49.2242 92.0864 49.237L92.2646 49.241C93.8494 49.241 95.3167 49.7356 96.5158 50.5767C96.6811 50.4361 96.8505 50.2973 97.024 50.1607C99.0894 48.5341 101.325 47.5234 103.665 47.4348L104 47.4285V48.4285C101.795 48.4285 99.6455 49.3691 97.6427 50.9463C97.529 51.0359 97.4171 51.1264 97.3071 51.2179C98.718 52.5335 99.5979 54.3953 99.5979 56.4598C99.5979 58.6962 98.5646 60.6952 96.9419 62.0195C97.6637 62.376 97.9 63.1327 97.9283 63.8403L97.9313 63.991H102.992C102.992 68.3354 98.2646 75.491 90.2646 78.116C88.5442 78.116 87.6848 78.8964 87.2916 79.4503L87.1872 79.6087C87.172 79.6336 87.1579 79.6577 87.1447 79.6808L87.0779 79.8075L87 79.991H89.9591C91.7391 79.991 93.8351 80.8378 93.9728 82.5315L93.98 82.7098V85.991H69.9313V82.7098C69.9313 80.9576 71.9484 80.0524 73.7462 79.994L73.9313 79.991H76.9313L76.9224 79.8749L76.9065 79.7737L76.8783 79.6487L76.8341 79.5049L76.7703 79.3473C76.5212 78.8047 75.8868 78.116 74.2706 78.116C66.4018 75.534 61.1735 68.3961 61.0042 64.1984L61 63.991H66.0159L65.7527 63.2735L65.6503 62.9792C65.3064 61.9426 65.1486 60.8396 66.2646 59.741C67.6774 58.3503 69.0902 57.6963 70.1065 57.3889L70.4138 57.3028C70.4626 57.2903 70.5103 57.2785 70.5567 57.2676L70.8192 57.211L71.0484 57.1706L71.2233 57.1459L71.4157 57.1258L71.5979 57.116L71.5053 56.8183L71.4104 56.4803L71.3386 56.2003L71.2647 55.8847L71.1928 55.5399C71.1813 55.4804 71.17 55.42 71.159 55.3588L71.0979 54.9832C70.9313 53.8348 70.9313 52.5223 71.5979 51.866C73.5166 49.9773 75.3419 49.4759 76.9246 49.4759C77.7609 49.4759 78.5298 49.6154 79.2099 49.7642L80.0337 49.9504C80.4624 50.0453 80.8411 50.1164 81.1619 50.1164C81.6715 50.1164 82.0367 49.9375 82.222 49.3866L82.2646 49.241C82.9957 46.3624 85.8312 45.0622 88.2436 44.4749L88.7045 44.3698C88.7803 44.3538 88.8554 44.3383 88.9298 44.3236L89.3673 44.2427C89.4386 44.2304 89.509 44.2188 89.5785 44.2077L89.9833 44.1477L90.3613 44.1L90.869 44.0483L91.162 44.025L91.594 44ZM95.8434 52.5899C96.9219 53.5459 97.5979 54.9272 97.5979 56.4598C97.5979 57.5041 97.2835 58.4974 96.7158 59.3364C95.8005 60.3523 94.4747 60.991 93 60.991C90.239 60.991 88 58.752 88 55.991C88 53.7264 89.5061 51.8131 91.5711 51.1982C91.7856 51.2266 92.0138 51.241 92.2646 51.241L92.485 51.2454C93.4151 51.2823 94.2827 51.5518 95.0294 51.9956L95.0091 52.0174L94.7178 52.3385C94.6271 52.4412 94.5428 52.5394 94.4651 52.6326L94.3995 52.7118L94.269 52.8755L95.0644 53.4815L95.113 53.419L95.2417 53.2613L95.4114 53.0632L95.7409 52.6989C95.7748 52.6626 95.8089 52.6262 95.8434 52.5899ZM88.0095 52.6592C87.3719 53.6124 87 54.7583 87 55.991C87 59.3043 89.6867 61.991 93 61.991C93.3041 61.991 93.603 61.9684 93.895 61.9247L93.2686 62.4359L95.911 63.74L95.9226 63.8181C95.928 63.868 95.9313 63.9263 95.9313 63.991V64.991H68.489L67.9021 63.3261L67.6475 62.6317L67.5408 62.3265C67.5256 62.2806 67.5116 62.2372 67.4988 62.1959L67.4369 61.9731C67.3498 61.6068 67.406 61.4578 67.5744 61.2649L67.6676 61.1663C68.9336 59.9202 70.2285 59.3237 71.3585 59.1464L71.5537 59.1209L71.6287 59.1157L73.2744 59.0883L74.8949 60.794L75.2164 61.1204L75.4697 61.3649L75.5628 61.447C76.8304 62.5054 78.1007 62.546 80.2209 61.5021L79.7791 60.6049L79.5508 60.7148C77.9139 61.4831 77.0977 61.4258 76.2036 60.6794C76.1574 60.6408 76.0931 60.581 76.0149 60.5049L75.7427 60.2321L75.4124 59.8903L74.2232 58.6331L73.4923 56.4745L73.4366 56.2991L73.329 55.9143L73.2489 55.5901C73.1296 55.0812 73.0471 54.5854 73.0174 54.1459C72.9939 53.7993 73.0055 53.5128 73.0459 53.3142L73.0553 53.2572C73.0549 53.2475 73.0497 53.2473 73.036 53.257L73.2231 53.0793C74.4765 51.9202 75.6463 51.4759 76.9246 51.4759C77.5108 51.4759 78.0768 51.5596 78.9172 51.7478L79.9562 51.9781C80.4108 52.0683 80.7848 52.1164 81.1619 52.1164C82.6534 52.1164 83.8159 51.2669 84.2038 49.7306L84.2597 49.5367C84.7547 48.0076 86.385 46.9919 88.4896 46.4505L88.745 46.387L88.642 46.8128C88.4586 47.6049 88.3303 48.364 88.2714 49.0762L87.9736 52.6778L88.0095 52.6592ZM95.9313 65.991L96 65.991L100.658 65.991L100.625 66.0999C99.4003 69.8577 95.2283 74.251 89.9846 76.0988L89.905 76.125L89.647 76.1417C88.242 76.2609 87.093 76.7896 86.2392 77.6185C85.6139 78.2256 85.2618 78.8589 85.0945 79.3833L84.5819 80.991H79V81.991H84.263H85H89.9591L90.1551 81.9953C91.2451 82.0438 91.98 82.4859 91.98 82.7098L91.979 83.991H71.931L71.9313 82.7098L71.9343 82.6813C71.9489 82.6133 72.0219 82.5316 72.2553 82.3943C72.6737 82.148 73.313 81.991 73.9313 81.991H78.9249L78.9313 79.9974L78.9271 79.8244C78.8977 79.2451 78.7103 78.5717 78.2333 77.8979L78.1012 77.722C77.3721 76.8061 76.2518 76.2495 74.8214 76.1372L74.632 76.126L74.1915 75.9677C69.1415 74.0595 64.8652 69.7369 63.4756 66.2003L63.397 65.991L68 65.991L68.8415 65.991H95.9313Z" fill="#212121"/>
</g>
<defs>
<clipPath id="clip0_878_101568">
<rect width="165" height="165" fill="white"/>
</clipPath>
</defs>
</svg>
