<?xml version="1.0" encoding="utf-8"?>
<!-- Generator: Adobe Illustrator 27.0.0, SVG Export Plug-In . SVG Version: 6.00 Build 0)  -->
<svg version="1.1" id="Layer_1" xmlns="http://www.w3.org/2000/svg" xmlns:xlink="http://www.w3.org/1999/xlink" x="0px" y="0px"
	 viewBox="0 0 20 12" style="enable-background:new 0 0 20 12;" xml:space="preserve">
<style type="text/css">
	.st0{fill-rule:evenodd;clip-rule:evenodd;fill:#FD7E14;}
</style>
<path class="st0" d="M19.3,0.2c0.3,0.3,0.3,0.8,0,1.1l-8,8c-0.3,0.3-0.8,0.3-1.1,0L6.8,5.8l-5.5,5.5c-0.3,0.3-0.8,0.3-1.1,0
	c-0.3-0.3-0.3-0.8,0-1.1l6-6c0.3-0.3,0.8-0.3,1.1,0l3.5,3.5l7.5-7.5C18.5-0.1,19-0.1,19.3,0.2z"/>
<path class="st0" d="M11.5,0.8c0-0.4,0.3-0.8,0.8-0.8h7C19.7,0,20,0.3,20,0.8v7c0,0.4-0.3,0.8-0.8,0.8c-0.4,0-0.8-0.3-0.8-0.8V1.5
	h-6.2C11.8,1.5,11.5,1.2,11.5,0.8z"/>
</svg>
